# xmcd
#
# Track frame offsets:
#	150
#	11008
#	37445
#	43408
#	101623
#	106851
#	110102
#	166370
#	169576
#	183540
#	229615
#
# Disc length: 3082 seconds
# Revision: 0
# Processed by: cddbd v1.5.2PL0 Copyright (c) Steve Scherf et al.
# Submitted via: dBpowerAMP V12.0
#
DISCID=950c080b
DTITLE=Hale Dwoskin - The Sedona Method Course CD 08
DYEAR=2007
DGENRE=Speech
TTITLE0=Bank in the Bank, Not in Your Head
TTITLE1=Question on Visualization
TTITLE2=The Secret of Letting Go of Fear
TTITLE3=Release on Fear
TTITLE4=Summary of Release
TTITLE5=The I Cannot in Lust
TTITLE6=Release on the I Cannot in Lust
TTITLE7=Summary of Release
TTITLE8=Introduction to From Scarcity to Enough
TTITLE9=Release on From Scarcity to Enough
TTITLE10=Conclusion
EXTD=
EXTT0=
EXTT1=
EXTT2=
EXTT3=
EXTT4=
EXTT5=
EXTT6=
EXTT7=
EXTT8=
EXTT9=
EXTT10=
PLAYORDER=
